<mxfile host="app.diagrams.net" modified="2023-11-03T11:28:48.143Z" agent="Mozilla/5.0 (Macintosh; Intel Mac OS X 10_15_7) AppleWebKit/537.36 (KHTML, like Gecko) Chrome/118.0.0.0 Safari/537.36" etag="8cqUIEP6iZ0VL9Z1A8o3" version="22.0.8" type="github">
  <diagram name="Page-1" id="6LUmja5MdDgCeK0f8D3p">
    <mxGraphModel dx="1136" dy="728" grid="1" gridSize="10" guides="1" tooltips="1" connect="1" arrows="1" fold="1" page="1" pageScale="1" pageWidth="413" pageHeight="583" math="0" shadow="0">
      <root>
        <mxCell id="0" />
        <mxCell id="1" parent="0" />
        <mxCell id="3f9XmsBpD6TOxqngzLL--1" value="HBS Template String" style="whiteSpace=wrap;html=1;rounded=1;arcSize=40;fontSize=18;" parent="1" vertex="1">
          <mxGeometry x="30.54" y="69.99916666666665" width="203.1258620689655" height="54.16666666666667" as="geometry" />
        </mxCell>
        <mxCell id="3f9XmsBpD6TOxqngzLL--4" value="AST" style="rounded=0;whiteSpace=wrap;html=1;fontSize=20;" parent="1" vertex="1">
          <mxGeometry x="457.0000689655172" y="69.99916666666665" width="162.50068965517238" height="54.16666666666667" as="geometry" />
        </mxCell>
        <mxCell id="3f9XmsBpD6TOxqngzLL--5" value="" style="edgeStyle=orthogonalEdgeStyle;rounded=0;orthogonalLoop=1;jettySize=auto;html=1;" parent="1" source="3f9XmsBpD6TOxqngzLL--6" target="3f9XmsBpD6TOxqngzLL--4" edge="1">
          <mxGeometry relative="1" as="geometry" />
        </mxCell>
        <mxCell id="3f9XmsBpD6TOxqngzLL--7" value="Higher IR" style="whiteSpace=wrap;html=1;rounded=0;fontSize=18;" parent="1" vertex="1">
          <mxGeometry x="459.9993103448275" y="259.9983333333334" width="162.50068965517238" height="54.16666666666667" as="geometry" />
        </mxCell>
        <mxCell id="3f9XmsBpD6TOxqngzLL--8" value="Normalization&lt;br style=&quot;font-size: 18px;&quot;&gt;pass" style="edgeStyle=orthogonalEdgeStyle;rounded=0;orthogonalLoop=1;jettySize=auto;html=1;fontSize=18;" parent="1" source="3f9XmsBpD6TOxqngzLL--4" target="3f9XmsBpD6TOxqngzLL--7" edge="1">
          <mxGeometry relative="1" as="geometry" />
        </mxCell>
        <mxCell id="3f9XmsBpD6TOxqngzLL--9" value="Mid-level IR" style="whiteSpace=wrap;html=1;rounded=0;fontSize=18;" parent="1" vertex="1">
          <mxGeometry x="30.003103448275795" y="250.0033333333334" width="162.50068965517238" height="54.16666666666667" as="geometry" />
        </mxCell>
        <mxCell id="3f9XmsBpD6TOxqngzLL--10" value="Symbol&lt;br style=&quot;font-size: 18px;&quot;&gt;Allocation" style="edgeStyle=orthogonalEdgeStyle;rounded=0;orthogonalLoop=1;jettySize=auto;html=1;entryX=1;entryY=0.5;entryDx=0;entryDy=0;exitX=0;exitY=0.5;exitDx=0;exitDy=0;fontSize=18;" parent="1" source="3f9XmsBpD6TOxqngzLL--7" target="3f9XmsBpD6TOxqngzLL--9" edge="1">
          <mxGeometry relative="1" as="geometry">
            <mxPoint x="372.08482758620687" y="342.2916666666667" as="targetPoint" />
          </mxGeometry>
        </mxCell>
        <mxCell id="3f9XmsBpD6TOxqngzLL--11" value="Wire-Format" style="whiteSpace=wrap;html=1;rounded=0;fontSize=18;" parent="1" vertex="1">
          <mxGeometry x="220" y="410.0033333333334" width="162.50068965517238" height="54.16666666666667" as="geometry" />
        </mxCell>
        <mxCell id="3f9XmsBpD6TOxqngzLL--12" value="Encoding" style="edgeStyle=orthogonalEdgeStyle;rounded=0;orthogonalLoop=1;jettySize=auto;html=1;fontSize=18;entryX=0;entryY=0.5;entryDx=0;entryDy=0;exitX=0.5;exitY=1;exitDx=0;exitDy=0;" parent="1" source="3f9XmsBpD6TOxqngzLL--9" target="3f9XmsBpD6TOxqngzLL--11" edge="1">
          <mxGeometry relative="1" as="geometry" />
        </mxCell>
        <mxCell id="hTi0ra3Cv4bJrsswrzqW-2" value="" style="edgeStyle=orthogonalEdgeStyle;rounded=0;orthogonalLoop=1;jettySize=auto;html=1;" edge="1" parent="1" source="3f9XmsBpD6TOxqngzLL--1" target="3f9XmsBpD6TOxqngzLL--6">
          <mxGeometry relative="1" as="geometry">
            <mxPoint x="234" y="97" as="sourcePoint" />
            <mxPoint x="429" y="97" as="targetPoint" />
          </mxGeometry>
        </mxCell>
        <mxCell id="3f9XmsBpD6TOxqngzLL--6" value="Handlebars Parser" style="text;html=1;align=center;verticalAlign=middle;resizable=0;points=[];autosize=1;strokeColor=none;fillColor=none;fontSize=18;" parent="1" vertex="1">
          <mxGeometry x="258.9575862068965" y="77.08" width="170" height="40" as="geometry" />
        </mxCell>
      </root>
    </mxGraphModel>
  </diagram>
</mxfile>
